<?xml version="1.0" standalone="yes"?>

<svg version="1.1" viewBox="0.0 0.0 537.0 162.0" fill="none" stroke="none" stroke-linecap="square" stroke-miterlimit="10" xmlns="http://www.w3.org/2000/svg" xmlns:xlink="http://www.w3.org/1999/xlink"><clipPath id="p.0"><path d="m0 0l537.0 0l0 162.0l-537.0 0l0 -162.0z" clip-rule="nonzero"></path></clipPath><g clip-path="url(#p.0)"><path fill="#000000" fill-opacity="0.0" d="m0 0l537.3228 0l0 162.11285l-537.3228 0z" fill-rule="nonzero"></path><path fill="#f4cccc" d="m195.86351 108.96588l41.826782 0l0 39.37007l-41.826782 0z" fill-rule="nonzero"></path><path stroke="#000000" stroke-width="1.0" stroke-linejoin="round" stroke-linecap="butt" d="m195.86351 108.96588l41.826782 0l0 39.37007l-41.826782 0z" fill-rule="nonzero"></path><path fill="#000000" d="m213.47931 134.81499l-1.671875 0l0 -10.640633q-0.59375 0.578125 -1.578125 1.15625q-0.984375 0.5625 -1.765625 0.859375l0 -1.625q1.40625 -0.65625 2.453125 -1.59375q1.046875 -0.9375 1.484375 -1.8125l1.078125 0l0 13.656258zm4.094467 -3.59375l1.671875 -0.21875q0.28125 1.421875 0.96875 2.046875q0.703125 0.625 1.6875 0.625q1.1875 0 2.0 -0.8125q0.8125 -0.828125 0.8125 -2.03125q0 -1.140625 -0.765625 -1.890625q-0.75 -0.75 -1.90625 -0.75q-0.46875 0 -1.171875 0.1875l0.1875 -1.4687576q0.15625 0.015625 0.265625 0.015625q1.0625 0 1.90625 -0.546875q0.859375 -0.5625 0.859375 -1.71875q0 -0.921875 -0.625 -1.515625q-0.609375 -0.609375 -1.59375 -0.609375q-0.96875 0 -1.625 0.609375q-0.640625 0.609375 -0.828125 1.84375l-1.671875 -0.296875q0.296875 -1.6875 1.375 -2.609375q1.09375 -0.921875 2.71875 -0.921875q1.109375 0 2.046875 0.484375q0.9375 0.46875 1.421875 1.296875q0.5 0.828125 0.5 1.75q0 0.890625 -0.46875 1.609375q-0.46875 0.71875 -1.40625 1.15625q1.21875 0.265625 1.875 1.1562576q0.671875 0.875 0.671875 2.1875q0 1.78125 -1.296875 3.015625q-1.296875 1.234375 -3.28125 1.234375q-1.796875 0 -2.984375 -1.0625q-1.171875 -1.0625 -1.34375 -2.765625z" fill-rule="nonzero"></path><path fill="#ffe599" d="m243.86351 108.96588l41.826767 0l0 39.37007l-41.826767 0z" fill-rule="nonzero"></path><path stroke="#000000" stroke-width="1.0" stroke-linejoin="round" stroke-linecap="butt" d="m243.86351 108.96588l41.826767 0l0 39.37007l-41.826767 0z" fill-rule="nonzero"></path><path fill="#000000" d="m255.18243 128.11186q0 -2.4218826 0.5 -3.8906326q0.5 -1.46875 1.46875 -2.265625q0.984375 -0.796875 2.46875 -0.796875q1.09375 0 1.921875 0.4375q0.828125 0.4375 1.359375 1.28125q0.546875 0.828125 0.84375 2.015625q0.3125 1.1875 0.3125 3.2187576q0 2.390625 -0.5 3.859375q-0.484375 1.46875 -1.46875 2.28125q-0.96875 0.796875 -2.46875 0.796875q-1.96875 0 -3.078125 -1.40625q-1.359375 -1.703125 -1.359375 -5.53125zm1.71875 0q0 3.34375 0.78125 4.453125q0.796875 1.109375 1.9375 1.109375q1.15625 0 1.9375 -1.109375q0.78125 -1.125 0.78125 -4.453125q0 -3.3593826 -0.78125 -4.4687576q-0.78125 -1.109375 -1.953125 -1.109375q-1.15625 0 -1.828125 0.984375q-0.875 1.234375 -0.875 4.5937576zm17.438232 5.09375l0 1.609375l-8.984375 0q-0.015625 -0.609375 0.1875 -1.15625q0.34375 -0.921875 1.09375 -1.8125q0.765625 -0.890625 2.1875 -2.0625q2.21875 -1.8125076 3.0 -2.8750076q0.78125 -1.0625 0.78125 -2.015625q0 -0.984375 -0.71875 -1.671875q-0.703125 -0.6875 -1.84375 -0.6875q-1.203125 0 -1.9375 0.734375q-0.71875 0.71875 -0.71875 2.0l-1.71875 -0.171875q0.171875 -1.921875 1.328125 -2.921875q1.15625 -1.015625 3.09375 -1.015625q1.953125 0 3.09375 1.09375q1.140625 1.078125 1.140625 2.6875q0 0.8125 -0.34375 1.609375q-0.328125 0.78125 -1.109375 1.6562576q-0.765625 0.859375 -2.5625 2.390625q-1.5 1.265625 -1.9375 1.71875q-0.421875 0.4375 -0.703125 0.890625l6.671875 0z" fill-rule="nonzero"></path><path fill="#b6d7a8" d="m291.86353 108.96588l41.82675 0l0 39.37007l-41.82675 0z" fill-rule="nonzero"></path><path stroke="#000000" stroke-width="1.0" stroke-linejoin="round" stroke-linecap="butt" d="m291.86353 108.96588l41.82675 0l0 39.37007l-41.82675 0z" fill-rule="nonzero"></path><path fill="#000000" d="m303.18243 131.25249l1.765625 -0.15625q0.1875 1.28125 0.890625 1.9375q0.71875 0.640625 1.71875 0.640625q1.203125 0 2.03125 -0.90625q0.84375 -0.90625 0.84375 -2.421875q0 -1.421875 -0.8125 -2.25q-0.796875 -0.8281326 -2.09375 -0.8281326q-0.796875 0 -1.453125 0.375q-0.640625 0.35938263 -1.015625 0.9531326l-1.578125 -0.203125l1.328125 -7.0000076l6.765625 0l0 1.609375l-5.4375 0l-0.734375 3.640625q1.234375 -0.84375 2.578125 -0.84375q1.78125 0 3.0 1.234375q1.234375 1.2343826 1.234375 3.1718826q0 1.84375 -1.078125 3.1875q-1.3125 1.65625 -3.578125 1.65625q-1.859375 0 -3.03125 -1.03125q-1.171875 -1.046875 -1.34375 -2.765625zm10.375732 0l1.765625 -0.15625q0.1875 1.28125 0.890625 1.9375q0.71875 0.640625 1.71875 0.640625q1.203125 0 2.03125 -0.90625q0.84375 -0.90625 0.84375 -2.421875q0 -1.421875 -0.8125 -2.25q-0.796875 -0.8281326 -2.09375 -0.8281326q-0.796875 0 -1.453125 0.375q-0.640625 0.35938263 -1.015625 0.9531326l-1.578125 -0.203125l1.328125 -7.0000076l6.765625 0l0 1.609375l-5.4375 0l-0.734375 3.640625q1.234375 -0.84375 2.578125 -0.84375q1.78125 0 3.0 1.234375q1.234375 1.2343826 1.234375 3.1718826q0 1.84375 -1.078125 3.1875q-1.3125 1.65625 -3.578125 1.65625q-1.859375 0 -3.03125 -1.03125q-1.171875 -1.046875 -1.34375 -2.765625z" fill-rule="nonzero"></path><path fill="#b6d7a8" d="m339.86353 108.96588l41.82675 0l0 39.37007l-41.82675 0z" fill-rule="nonzero"></path><path stroke="#000000" stroke-width="1.0" stroke-linejoin="round" stroke-linecap="butt" d="m339.86353 108.96588l41.82675 0l0 39.37007l-41.82675 0z" fill-rule="nonzero"></path><path fill="#000000" d="m351.18243 131.25249l1.765625 -0.15625q0.1875 1.28125 0.890625 1.9375q0.71875 0.640625 1.71875 0.640625q1.203125 0 2.03125 -0.90625q0.84375 -0.90625 0.84375 -2.421875q0 -1.421875 -0.8125 -2.25q-0.796875 -0.8281326 -2.09375 -0.8281326q-0.796875 0 -1.453125 0.375q-0.640625 0.35938263 -1.015625 0.9531326l-1.578125 -0.203125l1.328125 -7.0000076l6.765625 0l0 1.609375l-5.4375 0l-0.734375 3.640625q1.234375 -0.84375 2.578125 -0.84375q1.78125 0 3.0 1.234375q1.234375 1.2343826 1.234375 3.1718826q0 1.84375 -1.078125 3.1875q-1.3125 1.65625 -3.578125 1.65625q-1.859375 0 -3.03125 -1.03125q-1.171875 -1.046875 -1.34375 -2.765625zm10.391357 -0.03125l1.671875 -0.21875q0.28125 1.421875 0.96875 2.046875q0.703125 0.625 1.6875 0.625q1.1875 0 2.0 -0.8125q0.8125 -0.828125 0.8125 -2.03125q0 -1.140625 -0.765625 -1.890625q-0.75 -0.75 -1.90625 -0.75q-0.46875 0 -1.171875 0.1875l0.1875 -1.4687576q0.15625 0.015625 0.265625 0.015625q1.0625 0 1.90625 -0.546875q0.859375 -0.5625 0.859375 -1.71875q0 -0.921875 -0.625 -1.515625q-0.609375 -0.609375 -1.59375 -0.609375q-0.96875 0 -1.625 0.609375q-0.640625 0.609375 -0.828125 1.84375l-1.671875 -0.296875q0.296875 -1.6875 1.375 -2.609375q1.09375 -0.921875 2.71875 -0.921875q1.109375 0 2.046875 0.484375q0.9375 0.46875 1.421875 1.296875q0.5 0.828125 0.5 1.75q0 0.890625 -0.46875 1.609375q-0.46875 0.71875 -1.40625 1.15625q1.21875 0.265625 1.875 1.1562576q0.671875 0.875 0.671875 2.1875q0 1.78125 -1.296875 3.015625q-1.296875 1.234375 -3.28125 1.234375q-1.796875 0 -2.984375 -1.0625q-1.171875 -1.0625 -1.34375 -2.765625z" fill-rule="nonzero"></path><path fill="#000000" fill-opacity="0.0" d="m177.33333 67.944885l38.708664 33.354324" fill-rule="nonzero"></path><path stroke="#ffffff" stroke-width="2.0" stroke-linejoin="round" stroke-linecap="butt" d="m177.33333 67.944885l29.617966 25.521095" fill-rule="evenodd"></path><path fill="#ffffff" stroke="#ffffff" stroke-width="2.0" stroke-linecap="butt" d="m204.7949 95.96855l9.032135 3.4220886l-4.71933 -8.427216z" fill-rule="evenodd"></path><path fill="#000000" fill-opacity="0.0" d="m276.0971 68.6063l-9.543304 32.031494" fill-rule="nonzero"></path><path stroke="#ffffff" stroke-width="2.0" stroke-linejoin="round" stroke-linecap="butt" d="m276.0971 68.6063l-6.116913 20.531067" fill-rule="evenodd"></path><path fill="#ffffff" stroke="#ffffff" stroke-width="2.0" stroke-linecap="butt" d="m266.81424 88.19412l0.57440186 9.641586l5.757477 -7.7550964z" fill-rule="evenodd"></path><path fill="#000000" fill-opacity="0.0" d="m380.1942 67.95801l-38.551178 20.976372" fill-rule="nonzero"></path><path stroke="#ffffff" stroke-width="2.0" stroke-linejoin="round" stroke-linecap="butt" d="m380.1942 67.95801l-28.010498 15.241013" fill-rule="evenodd"></path><path fill="#ffffff" stroke="#ffffff" stroke-width="2.0" stroke-linecap="butt" d="m350.60483 80.297295l-6.3935547 7.239662l9.551331 -1.4362106z" fill-rule="evenodd"></path><path fill="#000000" fill-opacity="0.0" d="m301.5958 108.96588c0 -5.5315475 0.747345 -10.015747 1.66922 -10.015747l36.7088 0c0.9219055 0 1.66922 -4.484207 1.66922 -10.015755l0 0c0 5.5315475 0.747345 10.015755 1.66922 10.015755l36.7088 0l0 0c0.9219055 0 1.66922 4.4841995 1.66922 10.015747z" fill-rule="nonzero"></path><path fill="#000000" fill-opacity="0.0" d="m301.5958 108.96588c0 -5.5315475 0.747345 -10.015747 1.66922 -10.015747l36.7088 0c0.9219055 0 1.66922 -4.484207 1.66922 -10.015755l0 0c0 5.5315475 0.747345 10.015755 1.66922 10.015755l36.7088 0l0 0c0.9219055 0 1.66922 4.4841995 1.66922 10.015747" fill-rule="nonzero"></path><path stroke="#ffffff" stroke-width="2.0" stroke-linejoin="round" stroke-linecap="butt" d="m301.5958 108.96588c0 -5.5315475 0.747345 -10.015747 1.66922 -10.015747l36.7088 0c0.9219055 0 1.66922 -4.484207 1.66922 -10.015755l0 0c0 5.5315475 0.747345 10.015755 1.66922 10.015755l36.7088 0l0 0c0.9219055 0 1.66922 4.4841995 1.66922 10.015747" fill-rule="nonzero"></path><path fill="#000000" fill-opacity="0.0" d="m9.627296 8.574803l210.2362 0l0 59.370083l-210.2362 0z" fill-rule="nonzero"></path><path fill="#ffffff" d="m25.908546 20.652927q-0.296875 0.890625 -0.75 1.71875l4.96875 0l0.828125 -0.296875l0.953125 0.953125q0.296875 0.375 -0.296875 0.59375q-0.59375 2.96875 -1.78125 5.421875l1.78125 1.1875l-1.109375 1.640625l-1.625 -1.1875q-2.15625 3.109375 -6.171875 5.125l-1.703125 -1.265625q4.453125 -1.859375 6.390625 -4.90625q-1.859375 -1.1875 -3.640625 -2.15625l0.890625 -1.328125q2.296875 1.03125 3.78125 1.921875q1.109375 -2.296875 1.34375 -4.078125l-5.421875 0q-1.40625 2.53125 -3.484375 4.609375l-1.421875 -0.96875q3.796875 -3.9375 4.984375 -8.3125l1.78125 0.734375q0.59375 0.296875 -0.296875 0.59375zm21.078125 3.640625q-1.421875 8.09375 -9.28125 11.578125l-1.34375 -1.40625q7.28125 -2.96875 8.765625 -10.25l-5.9375 0q-1.703125 2.828125 -3.5625 4.53125l-1.484375 -0.96875q3.859375 -3.484375 4.96875 -8.15625l1.703125 0.59375q0.453125 0.21875 -0.140625 0.4375q-0.296875 0.96875 -0.8125 1.9375l5.34375 0l0.65625 -0.375l1.34375 1.34375q0.515625 0.515625 -0.21875 0.734375zm0.4375 -1.78125q-1.1875 -1.703125 -2.296875 -2.59375l0.96875 -0.8125q1.25 1.109375 2.375 2.59375l-1.046875 0.8125zm2.15625 -0.890625q-1.1875 -1.484375 -2.15625 -2.375l0.890625 -0.890625q1.109375 1.046875 2.15625 2.375l-0.890625 0.890625z" fill-rule="nonzero"></path><path fill="#ffffff" d="m55.49839 38.465427q-1.375 -1.75 -2.328125 -4.078125q-0.953125 -2.34375 -0.953125 -4.84375q0 -2.21875 0.703125 -4.234375q0.84375 -2.34375 2.578125 -4.671875l1.203125 0q-1.125 1.921875 -1.484375 2.75q-0.5625 1.28125 -0.890625 2.671875q-0.40625 1.734375 -0.40625 3.484375q0 4.46875 2.78125 8.921875l-1.203125 0zm6.697052 -4.0l0 -12.0l-4.46875 0l0 -1.59375l10.765625 0l0 1.59375l-4.5 0l0 12.0l-1.796875 0zm8.817856 4.0l-1.1875 0q2.765625 -4.453125 2.765625 -8.921875q0 -1.734375 -0.390625 -3.453125q-0.328125 -1.390625 -0.890625 -2.671875q-0.359375 -0.84375 -1.484375 -2.78125l1.1875 0q1.75 2.328125 2.578125 4.671875q0.71875 2.015625 0.71875 4.234375q0 2.5 -0.96875 4.84375q-0.953125 2.328125 -2.328125 4.078125z" fill-rule="nonzero"></path><path fill="#ffffff" d="m25.705421 55.918552l-1.671875 0l0 -10.640625q-0.59375 0.578125 -1.578125 1.15625q-0.984375 0.5625 -1.765625 0.859375l0 -1.625q1.40625 -0.65625 2.453125 -1.59375q1.046875 -0.9375 1.484375 -1.8125l1.078125 0l0 13.65625zm4.094467 -3.59375l1.671875 -0.21875q0.28125 1.421875 0.96875 2.046875q0.703125 0.625 1.6875 0.625q1.1875 0 2.0 -0.8125q0.8125 -0.828125 0.8125 -2.03125q0 -1.140625 -0.765625 -1.890625q-0.75 -0.75 -1.90625 -0.75q-0.46875 0 -1.171875 0.1875l0.1875 -1.46875q0.15625 0.015625 0.265625 0.015625q1.0625 0 1.90625 -0.546875q0.859375 -0.5625 0.859375 -1.71875q0 -0.921875 -0.625 -1.515625q-0.609375 -0.609375 -1.59375 -0.609375q-0.96875 0 -1.625 0.609375q-0.640625 0.609375 -0.828125 1.84375l-1.671875 -0.296875q0.296875 -1.6875 1.375 -2.609375q1.09375 -0.921875 2.71875 -0.921875q1.109375 0 2.046875 0.484375q0.9375 0.46875 1.421875 1.296875q0.5 0.828125 0.5 1.75q0 0.890625 -0.46875 1.609375q-0.46875 0.71875 -1.40625 1.15625q1.21875 0.265625 1.875 1.15625q0.671875 0.875 0.671875 2.1875q0 1.78125 -1.296875 3.015625q-1.296875 1.234375 -3.28125 1.234375q-1.796875 0 -2.984375 -1.0625q-1.171875 -1.0625 -1.34375 -2.765625zm19.610092 -4.40625l-8.96875 0l0 -1.5625l8.96875 0l0 1.5625zm0 4.125l-8.96875 0l0 -1.546875l8.96875 0l0 1.546875zm2.3324585 3.875l0 -13.59375l5.125 0q1.359375 0 2.078125 0.125q1.0 0.171875 1.671875 0.640625q0.671875 0.46875 1.078125 1.3125q0.421875 0.84375 0.421875 1.84375q0 1.734375 -1.109375 2.9375q-1.09375 1.203125 -3.984375 1.203125l-3.484375 0l0 5.53125l-1.796875 0zm1.796875 -7.140625l3.515625 0q1.75 0 2.46875 -0.640625q0.734375 -0.65625 0.734375 -1.828125q0 -0.859375 -0.4375 -1.46875q-0.421875 -0.609375 -1.125 -0.796875q-0.453125 -0.125 -1.671875 -0.125l-3.484375 0l0 4.859375zm10.412323 7.140625l0 -9.859375l1.5 0l0 1.5q0.578125 -1.046875 1.0625 -1.375q0.484375 -0.34375 1.078125 -0.34375q0.84375 0 1.71875 0.546875l-0.578125 1.546875q-0.609375 -0.359375 -1.234375 -0.359375q-0.546875 0 -0.984375 0.328125q-0.421875 0.328125 -0.609375 0.90625q-0.28125 0.890625 -0.28125 1.953125l0 5.15625l-1.671875 0zm6.243927 -11.6875l0 -1.90625l1.671875 0l0 1.90625l-1.671875 0zm0 11.6875l0 -9.859375l1.671875 0l0 9.859375l-1.671875 0zm4.129196 0l0 -9.859375l1.5 0l0 1.40625q1.09375 -1.625 3.140625 -1.625q0.890625 0 1.640625 0.328125q0.75 0.3125 1.109375 0.84375q0.375 0.515625 0.53125 1.21875q0.09375 0.46875 0.09375 1.625l0 6.0625l-1.671875 0l0 -6.0q0 -1.015625 -0.203125 -1.515625q-0.1875 -0.515625 -0.6875 -0.8125q-0.5 -0.296875 -1.171875 -0.296875q-1.0625 0 -1.84375 0.671875q-0.765625 0.671875 -0.765625 2.578125l0 5.375l-1.671875 0zm14.031967 -1.5l0.234375 1.484375q-0.703125 0.140625 -1.265625 0.140625q-0.90625 0 -1.40625 -0.28125q-0.5 -0.296875 -0.703125 -0.75q-0.203125 -0.46875 -0.203125 -1.984375l0 -5.65625l-1.234375 0l0 -1.3125l1.234375 0l0 -2.4375l1.65625 -1.0l0 3.4375l1.6875 0l0 1.3125l-1.6875 0l0 5.75q0 0.71875 0.078125 0.921875q0.09375 0.203125 0.296875 0.328125q0.203125 0.125 0.578125 0.125q0.265625 0 0.734375 -0.078125zm7.964554 0.28125q-0.9375 0.796875 -1.796875 1.125q-0.859375 0.3125 -1.84375 0.3125q-1.609375 0 -2.484375 -0.78125q-0.875 -0.796875 -0.875 -2.03125q0 -0.734375 0.328125 -1.328125q0.328125 -0.59375 0.859375 -0.953125q0.53125 -0.359375 1.203125 -0.546875q0.5 -0.140625 1.484375 -0.25q2.03125 -0.25 2.984375 -0.578125q0 -0.34375 0 -0.4375q0 -1.015625 -0.46875 -1.4375q-0.640625 -0.5625 -1.90625 -0.5625q-1.171875 0 -1.734375 0.40625q-0.5625 0.40625 -0.828125 1.46875l-1.640625 -0.234375q0.234375 -1.046875 0.734375 -1.6875q0.515625 -0.640625 1.46875 -0.984375q0.96875 -0.359375 2.25 -0.359375q1.265625 0 2.046875 0.296875q0.78125 0.296875 1.15625 0.75q0.375 0.453125 0.515625 1.140625q0.09375 0.421875 0.09375 1.53125l0 2.234375q0 2.328125 0.09375 2.953125q0.109375 0.609375 0.4375 1.171875l-1.75 0q-0.265625 -0.515625 -0.328125 -1.21875zm-0.140625 -3.71875q-0.90625 0.359375 -2.734375 0.625q-1.03125 0.140625 -1.453125 0.328125q-0.421875 0.1875 -0.65625 0.546875q-0.234375 0.359375 -0.234375 0.796875q0 0.671875 0.5 1.125q0.515625 0.4375 1.484375 0.4375q0.96875 0 1.71875 -0.421875q0.75 -0.4375 1.109375 -1.15625q0.265625 -0.578125 0.265625 -1.671875l0 -0.609375zm5.625717 4.9375l-1.546875 0l0 -13.59375l1.65625 0l0 4.84375q1.0625 -1.328125 2.703125 -1.328125q0.90625 0 1.71875 0.375q0.8125 0.359375 1.328125 1.03125q0.53125 0.65625 0.828125 1.59375q0.296875 0.9375 0.296875 2.0q0 2.53125 -1.25 3.921875q-1.25 1.375 -3.0 1.375q-1.75 0 -2.734375 -1.453125l0 1.234375zm-0.015625 -5.0q0 1.765625 0.46875 2.5625q0.796875 1.28125 2.140625 1.28125q1.09375 0 1.890625 -0.9375q0.796875 -0.953125 0.796875 -2.84375q0 -1.921875 -0.765625 -2.84375q-0.765625 -0.921875 -1.84375 -0.921875q-1.09375 0 -1.890625 0.953125q-0.796875 0.953125 -0.796875 2.75zm8.813217 5.0l0 -13.59375l1.671875 0l0 13.59375l-1.671875 0zm10.926071 -3.171875l1.71875 0.21875q-0.40625 1.5 -1.515625 2.34375q-1.09375 0.828125 -2.8125 0.828125q-2.15625 0 -3.421875 -1.328125q-1.265625 -1.328125 -1.265625 -3.734375q0 -2.484375 1.265625 -3.859375q1.28125 -1.375 3.328125 -1.375q1.984375 0 3.234375 1.34375q1.25 1.34375 1.25 3.796875q0 0.140625 -0.015625 0.4375l-7.34375 0q0.09375 1.625 0.921875 2.484375q0.828125 0.859375 2.0625 0.859375q0.90625 0 1.546875 -0.46875q0.65625 -0.484375 1.046875 -1.546875zm-5.484375 -2.703125l5.5 0q-0.109375 -1.234375 -0.625 -1.859375q-0.796875 -0.96875 -2.078125 -0.96875q-1.140625 0 -1.9375 0.78125q-0.78125 0.765625 -0.859375 2.046875zm8.719467 1.5l1.6875 -0.140625q0.125 1.015625 0.5625 1.671875q0.4375 0.65625 1.3593826 1.0625q0.9375 0.40625 2.09375 0.40625q1.03125 0 1.8125 -0.3125q0.796875 -0.3125 1.1875 -0.84375q0.390625 -0.53125 0.390625 -1.15625q0 -0.640625 -0.375 -1.109375q-0.375 -0.484375 -1.234375 -0.8125q-0.546875 -0.21875 -2.421875 -0.65625q-1.8750076 -0.453125 -2.6250076 -0.859375q-0.96875 -0.515625 -1.453125 -1.265625q-0.46875 -0.75 -0.46875 -1.6875q0 -1.03125 0.578125 -1.921875q0.59375 -0.90625 1.703125 -1.359375q1.1250076 -0.46875 2.5000076 -0.46875q1.515625 0 2.671875 0.484375q1.15625 0.484375 1.765625 1.4375q0.625 0.9375 0.671875 2.140625l-1.71875 0.125q-0.140625 -1.28125 -0.953125 -1.9375q-0.796875 -0.671875 -2.359375 -0.671875q-1.625 0 -2.3750076 0.609375q-0.75 0.59375 -0.75 1.4375q0 0.734375 0.53125 1.203125q0.5156326 0.46875 2.7031326 0.96875q2.203125 0.5 3.015625 0.875q1.1875 0.546875 1.75 1.390625q0.578125 0.828125 0.578125 1.921875q0 1.09375 -0.625 2.0625q-0.625 0.953125 -1.796875 1.484375q-1.15625 0.53125 -2.609375 0.53125q-1.84375 0 -3.0937576 -0.53125q-1.25 -0.546875 -1.96875 -1.625q-0.703125 -1.078125 -0.734375 -2.453125zm16.490456 2.875l0.234375 1.484375q-0.703125 0.140625 -1.265625 0.140625q-0.90625 0 -1.40625 -0.28125q-0.5 -0.296875 -0.703125 -0.75q-0.203125 -0.46875 -0.203125 -1.984375l0 -5.65625l-1.234375 0l0 -1.3125l1.234375 0l0 -2.4375l1.65625 -1.0l0 3.4375l1.6875 0l0 1.3125l-1.6875 0l0 5.75q0 0.71875 0.078125 0.921875q0.09375 0.203125 0.296875 0.328125q0.203125 0.125 0.578125 0.125q0.265625 0 0.734375 -0.078125zm1.5114288 1.5l0 -9.859375l1.5 0l0 1.5q0.578125 -1.046875 1.0625 -1.375q0.484375 -0.34375 1.078125 -0.34375q0.84375 0 1.71875 0.546875l-0.578125 1.546875q-0.609375 -0.359375 -1.234375 -0.359375q-0.546875 0 -0.984375 0.328125q-0.421875 0.328125 -0.609375 0.90625q-0.28125 0.890625 -0.28125 1.953125l0 5.15625l-1.671875 0zm6.243927 -11.6875l0 -1.90625l1.671875 0l0 1.90625l-1.671875 0zm0 11.6875l0 -9.859375l1.671875 0l0 9.859375l-1.671875 0zm4.129196 0l0 -9.859375l1.5 0l0 1.40625q1.09375 -1.625 3.140625 -1.625q0.890625 0 1.640625 0.328125q0.75 0.3125 1.109375 0.84375q0.375 0.515625 0.53125 1.21875q0.09375 0.46875 0.09375 1.625l0 6.0625l-1.671875 0l0 -6.0q0 -1.015625 -0.203125 -1.515625q-0.1875 -0.515625 -0.6875 -0.8125q-0.5 -0.296875 -1.171875 -0.296875q-1.0625 0 -1.84375 0.671875q-0.765625 0.671875 -0.765625 2.578125l0 5.375l-1.671875 0zm10.078842 0.8125l1.609375 0.25q0.109375 0.75 0.578125 1.09375q0.609375 0.453125 1.6875 0.453125q1.171875 0 1.796875 -0.46875q0.625 -0.453125 0.859375 -1.28125q0.125 -0.515625 0.109375 -2.15625q-1.09375 1.296875 -2.71875 1.296875q-2.03125 0 -3.15625 -1.46875q-1.109375 -1.46875 -1.109375 -3.515625q0 -1.40625 0.515625 -2.59375q0.515625 -1.203125 1.484375 -1.84375q0.96875 -0.65625 2.265625 -0.65625q1.75 0 2.875 1.40625l0 -1.1875l1.546875 0l0 8.515625q0 2.3125 -0.46875 3.265625q-0.46875 0.96875 -1.484375 1.515625q-1.015625 0.5625 -2.5 0.5625q-1.765625 0 -2.859375 -0.796875q-1.078125 -0.796875 -1.03125 -2.390625zm1.375 -5.921875q0 1.953125 0.765625 2.84375q0.78125 0.890625 1.9375 0.890625q1.140625 0 1.921875 -0.890625q0.78125 -0.890625 0.78125 -2.78125q0 -1.8125 -0.8125 -2.71875q-0.796875 -0.921875 -1.921875 -0.921875q-1.109375 0 -1.890625 0.90625q-0.78125 0.890625 -0.78125 2.671875z" fill-rule="nonzero"></path><path fill="#ffffff" d="m182.81345 50.356052q0.59375 0.0625 0.078125 0.4375l0 1.109375l5.34375 0l0 1.421875l-5.34375 0l0 2.296875l7.34375 0l0 1.40625l-15.953125 0l0 -1.40625l7.125 0l0 -2.296875l-5.203125 0l0 -1.421875l5.203125 0l0 -1.546875l1.40625 0zm-5.859375 -4.09375l-2.828125 0l0 -1.1875l2.828125 0l0 -2.671875l-2.15625 0l0 -1.1875l8.453125 0l0 1.1875l-1.921875 0l0 2.671875l2.453125 0l0 1.1875l-2.453125 0l0 3.9375l-1.265625 0l0 -3.9375l-1.859375 0l0 0.59375q0 3.125 -3.703125 4.453125l-0.59375 -1.40625q3.046875 -0.890625 3.046875 -3.1875l0 -0.453125zm12.46875 -5.265625q0.59375 0.078125 0.0625 0.453125l0 7.71875q0 1.1875 -1.1875 1.1875l-1.484375 0l-0.21875 -1.421875l1.109375 0q0.296875 0 0.296875 -0.296875l0 -7.640625l1.421875 0zm-9.359375 4.078125l0 -2.671875l-1.859375 0l0 2.671875l1.859375 0zm5.9375 -2.8125q0.59375 0.078125 0.078125 0.4375l0 5.5l-1.484375 0l0 -5.9375l1.40625 0z" fill-rule="nonzero"></path><path fill="#000000" fill-opacity="0.0" d="m208.04199 8.908136l210.23624 0l0 59.37008l-210.23624 0z" fill-rule="nonzero"></path><path fill="#ffffff" d="m234.12012 36.205013q-6.390625 -1.484375 -8.46875 -6.750002l-2.296875 0l0 4.890627l4.15625 -0.734375l0.296875 1.265625l-7.640625 1.5625q-0.078125 0.59375 -0.375 0.296875l-0.515625 -1.78125l2.59375 -0.375l0 -5.125002l-3.5625 0l0 -1.40625l3.5625 0l0 -8.015625l10.6875 0l0 1.40625l-9.203125 0l0 1.109375l8.15625 0l0 1.40625l-8.15625 0l0 1.265625l8.3125 0l0 1.40625l-8.3125 0l0 1.421875l11.421875 0l0 1.40625l-7.640625 0q0.453125 0.96875 1.640625 2.15625l2.375 -1.859375l1.25 0.890625q0.53125 0.375 -0.21875 0.375l-2.296875 1.5468769q1.484375 1.046875 5.125 2.015625l-0.890625 1.625zm9.421875 -11.281252q-3.046875 0.21875 -6.015625 0.21875l-0.4375 -1.484375q3.625 0 5.859375 -0.140625q-0.75 -2.078125 -1.046875 -3.859375l1.640625 0q0.671875 0.140625 0.140625 0.59375q0.296875 1.40625 0.890625 3.109375q2.609375 -0.21875 4.453125 -0.65625l0.375 1.625q-2.15625 0.296875 -4.234375 0.453125q1.484375 2.8125 4.53125 4.890625l-1.109375 1.34375q-2.75 -1.265625 -5.421875 -1.265625q-2.453125 0 -3.40625 0.96875q-0.453125 0.4375 -0.453125 1.25q0 0.7500019 0.671875 1.4218769q1.03125 1.03125 4.890625 1.03125l2.609375 0l-0.375 1.640625l-2.828125 0q-3.859375 0 -5.40625 -1.5625q-1.125 -1.109375 -1.125 -2.531252q0 -1.40625 0.828125 -2.21875q1.328125 -1.34375 4.15625 -1.34375q2.8125 0 3.265625 0.296875q-1.78125 -2.21875 -2.453125 -3.78125z" fill-rule="nonzero"></path><path fill="#ffffff" d="m255.02637 38.798763q-1.375 -1.75 -2.328125 -4.078125q-0.953125 -2.34375 -0.953125 -4.843752q0 -2.21875 0.703125 -4.234375q0.84375 -2.34375 2.578125 -4.671875l1.203125 0q-1.125 1.921875 -1.484375 2.75q-0.5625 1.28125 -0.890625 2.671875q-0.40625 1.734375 -0.40625 3.484375q0 4.468752 2.78125 8.921877l-1.203125 0zm3.165802 -4.0l0 -13.593752l1.796875 0l0 11.984377l6.703125 0l0 1.609375l-8.5 0zm11.328857 4.0l-1.1875 0q2.765625 -4.453125 2.765625 -8.921877q0 -1.734375 -0.390625 -3.453125q-0.328125 -1.390625 -0.890625 -2.671875q-0.359375 -0.84375 -1.484375 -2.78125l1.1875 0q1.75 2.328125 2.578125 4.671875q0.71875 2.015625 0.71875 4.234375q0 2.500002 -0.96875 4.843752q-0.953125 2.328125 -2.328125 4.078125z" fill-rule="nonzero"></path><path fill="#ffffff" d="m217.82324 49.548763q0 -2.421875 0.5 -3.890625q0.5 -1.46875 1.46875 -2.265625q0.984375 -0.796875 2.46875 -0.796875q1.09375 0 1.921875 0.4375q0.828125 0.4375 1.359375 1.28125q0.546875 0.828125 0.84375 2.015625q0.3125 1.1875 0.3125 3.21875q0 2.390625 -0.5 3.859375q-0.484375 1.46875 -1.46875 2.28125q-0.96875 0.796875 -2.46875 0.796875q-1.96875 0 -3.078125 -1.40625q-1.359375 -1.703125 -1.359375 -5.53125zm1.71875 0q0 3.34375 0.78125 4.453125q0.796875 1.109375 1.9375 1.109375q1.15625 0 1.9375 -1.109375q0.78125 -1.125 0.78125 -4.453125q0 -3.359375 -0.78125 -4.46875q-0.78125 -1.109375 -1.953125 -1.109375q-1.15625 0 -1.828125 0.984375q-0.875 1.234375 -0.875 4.59375zm17.438217 5.09375l0 1.609375l-8.984375 0q-0.015625 -0.609375 0.1875 -1.15625q0.34375 -0.921875 1.09375 -1.8125q0.765625 -0.890625 2.1875 -2.0625q2.21875 -1.8125 3.0 -2.875q0.78125 -1.0625 0.78125 -2.015625q0 -0.984375 -0.71875 -1.671875q-0.703125 -0.6875 -1.84375 -0.6875q-1.203125 0 -1.9375 0.734375q-0.71875 0.71875 -0.71875 2.0l-1.71875 -0.171875q0.171875 -1.921875 1.328125 -2.921875q1.15625 -1.015625 3.09375 -1.015625q1.953125 0 3.09375 1.09375q1.140625 1.078125 1.140625 2.6875q0 0.8125 -0.34375 1.609375q-0.328125 0.78125 -1.109375 1.65625q-0.765625 0.859375 -2.5625 2.390625q-1.5 1.265625 -1.9375 1.71875q-0.421875 0.4375 -0.703125 0.890625l6.671875 0zm10.844467 -6.390625l-8.96875 0l0 -1.5625l8.96875 0l0 1.5625zm0 4.125l-8.96875 0l0 -1.546875l8.96875 0l0 1.546875z" fill-rule="nonzero"></path><path fill="#ffffff" d="m253.95401 41.548763q-0.296875 1.9375 -1.03125 4.234375q0.671875 0.078125 0.21875 0.515625l0 11.515625l-1.484375 0l0 -9.203125q-0.515625 0.8125 -0.96875 1.328125l-1.1875 -0.890625q2.53125 -3.046875 2.96875 -8.234375l1.71875 0.375q0.296875 0.296875 -0.234375 0.359375zm7.28125 2.75l0 1.40625l3.640625 0l0 8.765625l-6.90625 0l0 -8.765625l1.78125 0l0 -1.40625l-5.34375 0l0 -1.40625l5.34375 0l0 -2.078125l1.40625 0q0.59375 0.078125 0.078125 0.4375l0 1.640625l4.828125 0l0 1.40625l-4.828125 0zm-2.0 2.59375l0 1.34375l4.375 0l0 -1.34375l-4.375 0zm0 2.53125l0 1.265625l4.375 0l0 -1.265625l-4.375 0zm0 2.453125l0 1.40625l4.375 0l0 -1.40625l-4.375 0zm-4.3125 5.9375l0 -11.875l1.40625 0q0.59375 0.0625 0.078125 0.4375l0 9.359375l10.25 0l0 1.40625l-10.25 0l0 0.671875l-1.484375 0zm26.421875 -13.4375q3.046875 3.109375 4.15625 7.5l-1.625 0.65625q-1.34375 -4.8125 -3.859375 -7.1875l1.328125 -0.96875zm-2.21875 5.9375q0 4.296875 -1.265625 5.5625q-0.75 0.75 -1.703125 0.75q-1.421875 0 -2.828125 -1.640625l0.96875 -1.328125q1.1875 1.1875 1.78125 1.1875q0.375 0 0.671875 -0.296875q0.8125 -0.828125 0.8125 -4.53125q0 -2.078125 -0.453125 -2.53125q-0.21875 -0.21875 -0.890625 -0.21875q-0.65625 0 -1.84375 0.15625q-1.5625 5.484375 -3.71875 9.421875l-1.703125 -0.59375q2.15625 -3.34375 3.78125 -8.6875q-1.625 0.21875 -3.1875 0.375l-0.15625 -1.640625q1.34375 0 3.71875 -0.21875q0.671875 -2.296875 1.109375 -4.671875l1.5625 0.515625q0.890625 0.375 -0.078125 0.671875q-0.4375 1.5625 -0.890625 3.34375q0.890625 -0.15625 1.859375 -0.15625q1.03125 0 1.5625 0.515625q0.890625 0.890625 0.890625 4.015625zm4.15625 -9.796875q1.328125 0.734375 2.96875 2.078125l-0.890625 0.890625q-1.640625 -1.265625 -2.96875 -2.078125l0.890625 -0.890625zm0.515625 4.75q-1.703125 -1.40625 -2.890625 -2.15625l0.890625 -0.890625q1.328125 0.75 2.96875 2.078125l-0.96875 0.96875z" fill-rule="nonzero"></path><path fill="#ffffff" d="m296.2509 54.642513l0 1.609375l-8.984375 0q-0.015625 -0.609375 0.1875 -1.15625q0.34375 -0.921875 1.09375 -1.8125q0.765625 -0.890625 2.1875 -2.0625q2.21875 -1.8125 3.0 -2.875q0.78125 -1.0625 0.78125 -2.015625q0 -0.984375 -0.71875 -1.671875q-0.703125 -0.6875 -1.84375 -0.6875q-1.203125 0 -1.9375 0.734375q-0.71875 0.71875 -0.71875 2.0l-1.71875 -0.171875q0.171875 -1.921875 1.328125 -2.921875q1.15625 -1.015625 3.09375 -1.015625q1.953125 0 3.09375 1.09375q1.140625 1.078125 1.140625 2.6875q0 0.8125 -0.34375 1.609375q-0.328125 0.78125 -1.109375 1.65625q-0.765625 0.859375 -2.5625 2.390625q-1.5 1.265625 -1.9375 1.71875q-0.421875 0.4375 -0.703125 0.890625l6.671875 0z" fill-rule="nonzero"></path><path fill="#ffffff" d="m309.82974 44.673763q3.71875 4.671875 5.265625 9.875l-2.0 0.65625q-1.859375 -5.859375 -4.828125 -9.34375l1.5625 -1.1875zm-5.640625 1.703125q0.59375 0.375 -0.140625 0.671875q-1.34375 4.671875 -4.3125 8.53125l-1.703125 -1.109375q3.265625 -3.9375 4.375 -8.90625l1.78125 0.8125zm8.90625 -5.78125q0.96875 0.8125 2.375 2.296875l-0.96875 0.890625q-1.328125 -1.484375 -2.375 -2.375l0.96875 -0.8125zm-1.78125 1.109375q1.109375 1.03125 2.375 2.515625l-1.109375 0.828125q-1.109375 -1.484375 -2.296875 -2.53125l1.03125 -0.8125zm5.859375 9.125q7.796875 -3.265625 11.8125 -9.203125l1.40625 1.1875q0.59375 0.453125 -0.515625 0.671875q-1.421875 1.859375 -3.640625 3.78125l0 10.09375l-1.703125 0l0 -8.6875q-2.609375 2.015625 -6.09375 3.640625l-1.265625 -1.484375zm18.628906 -3.484375q3.640625 1.03125 7.359375 2.8125l-0.890625 1.71875q-3.9375 -2.015625 -6.46875 -2.671875l0 7.71875l-1.703125 0l0 -14.84375l1.484375 0q0.890625 0.0625 0.21875 0.59375l0 4.671875z" fill-rule="nonzero"></path><path fill="#000000" fill-opacity="0.0" d="m363.11548 30.923885l210.2362 0l0 47.33858l-210.2362 0z" fill-rule="nonzero"></path><path fill="#ffffff" d="m377.3811 42.111385q-0.296875 1.9375 -1.03125 4.234375q0.671875 0.078125 0.21875 0.515625l0 11.515625l-1.484375 0l0 -9.203125q-0.515625 0.8125 -0.96875 1.328125l-1.1875 -0.890625q2.53125 -3.046875 2.96875 -8.234375l1.71875 0.375q0.296875 0.296875 -0.234375 0.359375zm7.28125 2.75l0 1.40625l3.640625 0l0 8.765625l-6.90625 0l0 -8.765625l1.78125 0l0 -1.40625l-5.34375 0l0 -1.40625l5.34375 0l0 -2.078125l1.40625 0q0.59375 0.078125 0.078125 0.4375l0 1.640625l4.828125 0l0 1.40625l-4.828125 0zm-2.0 2.59375l0 1.34375l4.375 0l0 -1.34375l-4.375 0zm0 2.53125l0 1.265625l4.375 0l0 -1.265625l-4.375 0zm0 2.453125l0 1.40625l4.375 0l0 -1.40625l-4.375 0zm-4.3125 5.9375l0 -11.875l1.40625 0q0.59375 0.0625 0.078125 0.4375l0 9.359375l10.25 0l0 1.40625l-10.25 0l0 0.671875l-1.484375 0z" fill-rule="nonzero"></path><path fill="#ffffff" d="m395.55298 60.81451q-1.375 -1.75 -2.328125 -4.078125q-0.953125 -2.34375 -0.953125 -4.84375q0 -2.21875 0.703125 -4.234375q0.84375 -2.34375 2.578125 -4.671875l1.203125 0q-1.125 1.921875 -1.484375 2.75q-0.5625 1.28125 -0.890625 2.671875q-0.40625 1.734375 -0.40625 3.484375q0 4.46875 2.78125 8.921875l-1.203125 0zm7.134552 -4.0l-5.28125 -13.59375l1.953125 0l3.53125 9.875q0.4375 1.1875 0.71875 2.21875q0.3125 -1.109375 0.734375 -2.21875l3.671875 -9.875l1.84375 0l-5.328125 13.59375l-1.84375 0zm9.427948 4.0l-1.1875 0q2.765625 -4.453125 2.765625 -8.921875q0 -1.734375 -0.390625 -3.453125q-0.328125 -1.390625 -0.890625 -2.671875q-0.359375 -0.84375 -1.484375 -2.78125l1.1875 0q1.75 2.328125 2.578125 4.671875q0.71875 2.015625 0.71875 4.234375q0 2.5 -0.96875 4.84375q-0.953125 2.328125 -2.328125 4.078125zm9.833496 -7.5625l1.765625 -0.15625q0.1875 1.28125 0.890625 1.9375q0.71875 0.640625 1.71875 0.640625q1.203125 0 2.03125 -0.90625q0.84375 -0.90625 0.84375 -2.421875q0 -1.421875 -0.8125 -2.25q-0.796875 -0.828125 -2.09375 -0.828125q-0.796875 0 -1.453125 0.375q-0.640625 0.359375 -1.015625 0.953125l-1.578125 -0.203125l1.328125 -7.0l6.765625 0l0 1.609375l-5.4375 0l-0.734375 3.640625q1.234375 -0.84375 2.578125 -0.84375q1.78125 0 3.0 1.234375q1.234375 1.234375 1.234375 3.171875q0 1.84375 -1.078125 3.1875q-1.3125 1.65625 -3.578125 1.65625q-1.859375 0 -3.03125 -1.03125q-1.171875 -1.046875 -1.34375 -2.765625zm10.375702 0l1.765625 -0.15625q0.1875 1.28125 0.890625 1.9375q0.71875 0.640625 1.71875 0.640625q1.203125 0 2.03125 -0.90625q0.84375 -0.90625 0.84375 -2.421875q0 -1.421875 -0.8125 -2.25q-0.796875 -0.828125 -2.09375 -0.828125q-0.796875 0 -1.453125 0.375q-0.640625 0.359375 -1.015625 0.953125l-1.578125 -0.203125l1.328125 -7.0l6.765625 0l0 1.609375l-5.4375 0l-0.734375 3.640625q1.234375 -0.84375 2.578125 -0.84375q1.78125 0 3.0 1.234375q1.234375 1.234375 1.234375 3.171875q0 1.84375 -1.078125 3.1875q-1.3125 1.65625 -3.578125 1.65625q-1.859375 0 -3.03125 -1.03125q-1.171875 -1.046875 -1.34375 -2.765625zm10.375732 0l1.765625 -0.15625q0.1875 1.28125 0.890625 1.9375q0.71875 0.640625 1.71875 0.640625q1.203125 0 2.03125 -0.90625q0.84375 -0.90625 0.84375 -2.421875q0 -1.421875 -0.8125 -2.25q-0.796875 -0.828125 -2.09375 -0.828125q-0.796875 0 -1.453125 0.375q-0.640625 0.359375 -1.015625 0.953125l-1.578125 -0.203125l1.328125 -7.0l6.765625 0l0 1.609375l-5.4375 0l-0.734375 3.640625q1.234375 -0.84375 2.578125 -0.84375q1.78125 0 3.0 1.234375q1.234375 1.234375 1.234375 3.171875q0 1.84375 -1.078125 3.1875q-1.3125 1.65625 -3.578125 1.65625q-1.859375 0 -3.03125 -1.03125q-1.171875 -1.046875 -1.34375 -2.765625zm10.391327 -0.03125l1.671875 -0.21875q0.28125 1.421875 0.96875 2.046875q0.703125 0.625 1.6875 0.625q1.1875 0 2.0 -0.8125q0.8125 -0.828125 0.8125 -2.03125q0 -1.140625 -0.765625 -1.890625q-0.75 -0.75 -1.90625 -0.75q-0.46875 0 -1.171875 0.1875l0.1875 -1.46875q0.15625 0.015625 0.265625 0.015625q1.0625 0 1.90625 -0.546875q0.859375 -0.5625 0.859375 -1.71875q0 -0.921875 -0.625 -1.515625q-0.609375 -0.609375 -1.59375 -0.609375q-0.96875 0 -1.625 0.609375q-0.640625 0.609375 -0.828125 1.84375l-1.671875 -0.296875q0.296875 -1.6875 1.375 -2.609375q1.09375 -0.921875 2.71875 -0.921875q1.109375 0 2.046875 0.484375q0.9375 0.46875 1.421875 1.296875q0.5 0.828125 0.5 1.75q0 0.890625 -0.46875 1.609375q-0.46875 0.71875 -1.40625 1.15625q1.21875 0.265625 1.875 1.15625q0.671875 0.875 0.671875 2.1875q0 1.78125 -1.296875 3.015625q-1.296875 1.234375 -3.28125 1.234375q-1.796875 0 -2.984375 -1.0625q-1.171875 -1.0625 -1.34375 -2.765625zm19.610107 -4.40625l-8.96875 0l0 -1.5625l8.96875 0l0 1.5625zm0 4.125l-8.96875 0l0 -1.546875l8.96875 0l0 1.546875zm1.6762085 -7.921875l0 -1.9375l1.78125 0l0 1.53125q0 1.234375 -0.28125 1.78125q-0.40625 0.75 -1.25 1.140625l-0.40625 -0.671875q0.5 -0.203125 0.75 -0.640625q0.25 -0.4375 0.265625 -1.203125l-0.859375 0zm2.875 0l0 -1.9375l1.78125 0l0 1.53125q0 1.234375 -0.28125 1.78125q-0.40625 0.75 -1.25 1.140625l-0.40625 -0.671875q0.5 -0.203125 0.75 -0.640625q0.25 -0.4375 0.28125 -1.203125l-0.875 0zm12.915802 -1.796875l1.796875 0l0 7.84375q0 2.0625 -0.46875 3.265625q-0.453125 1.203125 -1.671875 1.96875q-1.203125 0.75 -3.171875 0.75q-1.90625 0 -3.125 -0.65625q-1.21875 -0.65625 -1.734375 -1.90625q-0.515625 -1.25 -0.515625 -3.421875l0 -7.84375l1.796875 0l0 7.84375q0 1.765625 0.328125 2.609375q0.328125 0.84375 1.125 1.296875q0.8125 0.453125 1.96875 0.453125q1.984375 0 2.828125 -0.890625q0.84375 -0.90625 0.84375 -3.46875l0 -7.84375zm3.941681 9.21875l1.6875 -0.140625q0.125 1.015625 0.5625 1.671875q0.4375 0.65625 1.359375 1.0625q0.9375 0.40625 2.09375 0.40625q1.03125 0 1.8125 -0.3125q0.796875 -0.3125 1.1875 -0.84375q0.390625 -0.53125 0.390625 -1.15625q0 -0.640625 -0.375 -1.109375q-0.375 -0.484375 -1.234375 -0.8125q-0.546875 -0.21875 -2.421875 -0.65625q-1.875 -0.453125 -2.625 -0.859375q-0.96875 -0.515625 -1.453125 -1.265625q-0.46875 -0.75 -0.46875 -1.6875q0 -1.03125 0.578125 -1.921875q0.59375 -0.90625 1.703125 -1.359375q1.125 -0.46875 2.5 -0.46875q1.515625 0 2.671875 0.484375q1.15625 0.484375 1.765625 1.4375q0.625 0.9375 0.671875 2.140625l-1.71875 0.125q-0.140625 -1.28125 -0.953125 -1.9375q-0.796875 -0.671875 -2.359375 -0.671875q-1.625 0 -2.375 0.609375q-0.75 0.59375 -0.75 1.4375q0 0.734375 0.53125 1.203125q0.515625 0.46875 2.703125 0.96875q2.203125 0.5 3.015625 0.875q1.1875 0.546875 1.75 1.390625q0.578125 0.828125 0.578125 1.921875q0 1.09375 -0.625 2.0625q-0.625 0.953125 -1.796875 1.484375q-1.15625 0.53125 -2.609375 0.53125q-1.84375 0 -3.09375 -0.53125q-1.25 -0.546875 -1.96875 -1.625q-0.703125 -1.078125 -0.734375 -2.453125zm12.396698 -7.421875l0 -1.9375l1.78125 0l0 1.53125q0 1.234375 -0.28125 1.78125q-0.40625 0.75 -1.25 1.140625l-0.40625 -0.671875q0.5 -0.203125 0.75 -0.640625q0.25 -0.4375 0.265625 -1.203125l-0.859375 0zm2.875 0l0 -1.9375l1.78125 0l0 1.53125q0 1.234375 -0.28125 1.78125q-0.40625 0.75 -1.25 1.140625l-0.40625 -0.671875q0.5 -0.203125 0.75 -0.640625q0.25 -0.4375 0.28125 -1.203125l-0.875 0z" fill-rule="nonzero"></path></g></svg>

